HIERARCHY
ROOT SpineBase
{
  OFFSET 0.000000 0.000000 0.000000
  CHANNELS 6 Xposition Yposition Zposition Zrotation Xrotation Yrotation
  JOINT SpineMid
  {
    OFFSET 0.000000 28.866484 0.000000
    CHANNELS 3 Zrotation Xrotation Yrotation
    JOINT SpineShoulder
    {
      OFFSET 0.103067 21.492835 -0.843563
      CHANNELS 3 Zrotation Xrotation Yrotation
      JOINT Neck
      {
        OFFSET 0.011064 7.127520 -0.624601
        CHANNELS 3 Zrotation Xrotation Yrotation
        JOINT Head
        {
          OFFSET -1.783726 12.336122 -0.520421
          CHANNELS 3 Zrotation Xrotation Yrotation
          End Site
          {
            OFFSET 0 0 0
          }
        }
      }
      JOINT ShoulderLeft
      {
        OFFSET -16.757826 -2.663483 2.048078
        CHANNELS 3 Zrotation Xrotation Yrotation
        JOINT ElbowLeft
        {
          OFFSET -4.323932 -26.112565 1.250916
          CHANNELS 3 Zrotation Xrotation Yrotation
          JOINT WristLeft
          {
            OFFSET -1.005592 -20.585367 -5.808512
            CHANNELS 3 Zrotation Xrotation Yrotation
            JOINT HandLeft
            {
              OFFSET 0.671330 -5.058055 -2.231712
              CHANNELS 3 Zrotation Xrotation Yrotation
              JOINT HandTipLeft
              {
                OFFSET -0.669494 -7.073684 -0.053605
                CHANNELS 3 Zrotation Xrotation Yrotation
                End Site
                {
                  OFFSET 0 0 0
                }
              }
              JOINT ThumbLeft
              {
                OFFSET -3.467589 1.406358 -0.413290
                CHANNELS 3 Zrotation Xrotation Yrotation
                End Site
                {
                  OFFSET 0 0 0
                }
              }
            }
          }
        }
      }
      JOINT ShoulderRight
      {
        OFFSET 15.458877 -1.561955 -4.710424
        CHANNELS 3 Zrotation Xrotation Yrotation
        JOINT ElbowRight
        {
          OFFSET 2.972266 -25.543790 1.168260
          CHANNELS 3 Zrotation Xrotation Yrotation
          JOINT WristRight
          {
            OFFSET -1.427125 -20.666097 -8.138314
            CHANNELS 3 Zrotation Xrotation Yrotation
            JOINT HandRight
            {
              OFFSET -2.627254 -4.524976 0.257880
              CHANNELS 3 Zrotation Xrotation Yrotation
              JOINT HandTipRight
              {
                OFFSET -0.221589 -6.497660 -0.570509
                CHANNELS 3 Zrotation Xrotation Yrotation
                End Site
                {
                  OFFSET 0 0 0
                }
              }
              JOINT ThumbRight
              {
                OFFSET -3.111650 1.219870 -0.351148
                CHANNELS 3 Zrotation Xrotation Yrotation
                End Site
                {
                  OFFSET 0 0 0
                }
              }
            }
          }
        }
      }
    }
  }
  JOINT HipLeft
  {
    OFFSET -7.600308 0.851558 -1.905071
    CHANNELS 3 Zrotation Xrotation Yrotation
    JOINT KneeLeft
    {
      OFFSET -5.232951 -27.917557 -1.696056
      CHANNELS 3 Zrotation Xrotation Yrotation
      JOINT AnkleLeft
      {
        OFFSET 1.014771 -33.803106 7.907555
        CHANNELS 3 Zrotation Xrotation Yrotation
        JOINT FootLeft
        {
          OFFSET -2.607578 -3.325704 -12.103661
          CHANNELS 3 Zrotation Xrotation Yrotation
          End Site
          {
            OFFSET 0 0 0
          }
        }
      }
    }
  }
  JOINT HipRight
  {
    OFFSET 6.509047 0.955222 -4.563848
    CHANNELS 3 Zrotation Xrotation Yrotation
    JOINT KneeRight
    {
      OFFSET 7.238740 -27.882766 3.272348
      CHANNELS 3 Zrotation Xrotation Yrotation
      JOINT AnkleRight
      {
        OFFSET 5.530591 -34.540480 6.060661
        CHANNELS 3 Zrotation Xrotation Yrotation
        JOINT FootRight
        {
          OFFSET 3.248115 -6.863757 -5.081123
          CHANNELS 3 Zrotation Xrotation Yrotation
          End Site
          {
            OFFSET 0 0 0
          }
        }
      }
    }
  }
}
MOTION
Frames: 6
Frame Time: 0.033333
59.181411 68.918665 344.199607 -0.000000 0.000000 10.671715 -0.000000 0.000000 -10.671715 -0.000000 0.000000 0.000000 -0.000000 0.000000 0.000000 0.000000 0.000000 0.000000 -0.000000 0.000000 0.000000 -0.000000 0.000000 0.000000 -0.000000 0.000000 0.000000 -0.000000 0.000000 0.000000 0.000000 0.000000 0.000000 0.000000 0.000000 0.000000 -0.000000 0.000000 0.000000 -0.000000 0.000000 0.000000 -0.000000 0.000000 0.000000 -0.000000 0.000000 0.000000 0.000000 0.000000 0.000000 0.000000 0.000000 0.000000 -0.000000 0.000000 -10.671715 -0.000000 0.000000 0.000000 -0.000000 0.000000 0.000000 0.000000 0.000000 0.000000 -0.000000 0.000000 -10.671715 -0.000000 0.000000 0.000000 -0.000000 0.000000 0.000000 0.000000 0.000000 0.000000
59.728735 68.596308 344.279759 0.642090 -0.557025 11.325130 0.169830 -0.080601 -11.287277 0.097188 0.041729 0.045510 -0.228654 1.462762 0.070103 0.000000 0.000000 0.000000 -0.920816 0.562218 -0.077082 0.263262 1.382989 -0.144547 0.245085 -0.715986 0.012867 0.479185 4.123403 -0.359311 0.000000 0.000000 0.000000 0.000000 0.000000 0.000000 2.276351 -0.207618 -0.029912 -2.999920 -0.434720 -0.031336 4.467056 2.164153 -0.443129 -2.754293 -2.608199 0.211662 0.000000 0.000000 0.000000 0.000000 0.000000 0.000000 -3.972038 2.404730 -11.192241 -0.879632 0.711020 -1.043379 4.742224 -4.993750 3.861042 0.000000 0.000000 0.000000 -0.520240 0.672240 -11.318957 0.199396 -0.938333 -0.113434 -0.018089 -0.066968 -0.498037 0.000000 0.000000 0.000000
59.752166 68.318659 344.268172 1.214908 -1.068661 11.754490 0.315833 -0.135218 -11.678874 0.174241 0.083989 0.083429 -0.578971 2.663784 0.106606 0.000000 0.000000 0.000000 -0.717118 0.128586 0.054578 -0.312138 3.369562 -0.530184 0.414360 -1.273185 0.006753 1.014163 7.536593 -0.645544 0.000000 0.000000 0.000000 0.000000 0.000000 0.000000 4.166013 -0.511906 -0.076465 -5.301862 -0.829419 -0.080413 7.473693 4.070474 -0.927375 -4.223121 -4.792325 0.418327 0.000000 0.000000 0.000000 0.000000 0.000000 0.000000 -7.056890 4.351917 -11.366142 -1.919674 1.649010 -1.877529 9.053733 -9.203758 7.138196 0.000000 0.000000 0.000000 -0.197491 2.191881 -11.419075 -0.010874 -2.666374 -0.482178 -0.584235 1.627712 0.166983 0.000000 0.000000 0.000000
59.251705 68.085718 344.164844 1.717694 -1.534216 11.955874 0.439199 -0.161901 -11.844205 0.231525 0.126144 0.114322 -1.046966 3.606928 0.121704 0.000000 0.000000 0.000000 -0.989597 0.361548 0.048425 -0.138685 4.291374 -0.807390 0.504386 -1.695905 -0.025407 1.589306 10.240006 -0.845094 0.000000 0.000000 0.000000 0.000000 0.000000 0.000000 5.666030 -0.908009 -0.128534 -6.898785 -1.184765 -0.161813 9.473080 5.820443 -1.389615 -4.914998 -6.589717 0.646839 0.000000 0.000000 0.000000 0.000000 0.000000 0.000000 -9.362775 5.826911 -11.277151 -2.889386 2.696606 -2.468258 12.600897 -12.370039 9.532760 0.000000 0.000000 0.000000 0.047221 2.999898 -11.470845 -0.031334 -3.490740 -0.598329 -2.282267 3.649323 1.783515 0.000000 0.000000 0.000000
58.227350 67.897485 343.969777 2.149860 -1.953185 11.926556 0.540559 -0.159301 -11.781951 0.269410 0.167656 0.138698 -1.630535 4.295572 0.123604 0.000000 0.000000 0.000000 -1.205674 0.707810 0.016890 0.250555 4.696971 -1.089244 0.508328 -2.006215 -0.087763 2.202733 12.260204 -0.945204 0.000000 0.000000 0.000000 0.000000 0.000000 0.000000 6.783992 -1.392051 -0.178919 -7.796675 -1.497743 -0.290819 10.730449 7.477052 -1.800777 -5.148697 -8.018456 0.899413 0.000000 0.000000 0.000000 0.000000 0.000000 0.000000 -10.966875 6.832411 -10.984705 -3.632877 3.763563 -2.809590 15.096800 -14.345172 10.791934 0.000000 0.000000 0.000000 0.507329 3.612630 -11.310861 -0.060058 -3.982045 -0.632674 -4.704565 7.395959 4.706807 0.000000 0.000000 0.000000
56.679103 67.753960 343.682970 2.510971 -2.325216 11.664855 0.619907 -0.126623 -11.491619 0.288237 0.208086 0.157001 -2.329186 4.732140 0.116728 0.000000 0.000000 0.000000 -1.365922 1.167882 -0.041572 0.852263 4.582714 -1.365098 0.415794 -2.221172 -0.181146 2.866935 13.625837 -0.934547 0.000000 0.000000 0.000000 0.000000 0.000000 0.000000 7.532886 -1.961390 -0.224134 -8.009584 -1.762939 -0.482705 11.411117 9.081697 -2.148529 -5.138197 -9.094506 1.169296 0.000000 0.000000 0.000000 0.000000 0.000000 0.000000 -11.914068 7.377813 -10.528743 -4.059842 4.792078 -2.914170 16.356606 -15.083275 10.761390 0.000000 0.000000 0.000000 1.177603 4.034424 -10.939434 -0.094949 -4.141124 -0.589220 -8.216183 12.190604 8.919019 0.000000 0.000000 0.000000
